<?xml version="1.0" encoding="UTF-8"?>
<svg id="_图层_1" data-name="图层 1" xmlns="http://www.w3.org/2000/svg" viewBox="0 0 342.42 357.88">
  <defs>
    <style>
      .cls-1 {
        fill: #d86e32;
      }

      .cls-2 {
        fill: #c3ab95;
      }

      .cls-3 {
        fill: #f0be9d;
      }
    </style>
  </defs>
  <path class="cls-1" d="M180.29,308.03c-6.77,3.76-13.09,1.06-18.87-2.15l-85.24-47.48c-6.4-3.57-9.89-7.96-9.88-15.59l.08-111.85c0-4.93,2.41-10.03,6.79-12.49l89.62-50.11c5.03-2.81,10.83-5.12,16.42-2l90.23,50.4c5.59,3.12,9.32,7.48,9.32,14.23v112.82c0,6.8-3.23,11.4-8.93,14.56l-89.55,49.67ZM218.47,148.33l39.33-22.05-84.93-47.22-84.83,47.08,84.71,47.65,45.73-25.46ZM165.65,291.92l.07-105.86-85.35-47.88-.02,106.33,85.3,47.42ZM264.83,244.87l-.08-106.1-84.88,47.19-.12,106.24,85.08-47.33Z"/>
  <path class="cls-2" d="M68.01,326.9l4.02,11.28c1.58,4.44-.61,8.52-4.14,9.65-5.04,1.62-8.02-.99-9.76-5.55l-13.82-36.14c-.71-1.85-.92-5.12-.2-6.94.69-1.72,3.97-3.58,6.27-3.57l41.13.21c4.75.02,8.17,2.1,8.34,6.6.15,4.17-2.53,7.53-7.33,7.78l-15.53.8c75.08,53.75,177.53,35.47,225.17-43.58,32.3-53.59,32.85-121.15-.8-174.39-2.71-4.29-2.83-8.93,1.55-12.05,3.83-2.73,8.79-1.87,11.67,2.7,43.05,68.37,35.58,157.99-18.1,218.3-43.66,49.05-111.79,67.43-174.86,48.69-18.82-5.59-35.62-14.21-52.16-24.81l-1.44,1.04ZM67.4,325.2l1.23.06-1.23-.06Z"/>
  <path class="cls-1" d="M244.11,43.14l15.96-2.89c-17.34-10.57-34.73-17.67-53.3-21.17C108.89.67,17.82,74.74,16.12,174.42c-.4,23.31,6.05,46.25,16.06,67.57,2.27,4.84,1.52,9.51-3.26,11.73-4.51,2.09-9.24.15-11.5-4.86C6.63,224.85-.51,199.47.03,173.36,2.18,69.37,93.57-10.54,196.93,1.13c25.39,2.87,48.77,11.8,72.01,24.9l-5.57-14.85c-1.37-3.64,2.17-7.38,4.97-8.06,4.73-1.15,7.4,1.4,9.33,5.57l15.82,34.18c1.83,3.94-1.63,8.26-5.15,8.7l-41.81,5.24c-4.33.54-7.75-1.6-8.46-5.8-.52-3.11,1.67-7.08,6.04-7.87Z"/>
  <path class="cls-3" d="M218.47,148.33l-1.91-2.47-38.71-21.37c-3.08-1.08-5.41-4.17-5.42-7.52l.44-37.91,84.93,47.22-39.33,22.05Z"/>
  <path class="cls-1" d="M213.28,199.23c-2.94,1.64-7-.6-8.14-2.59-1.37-2.37-1.12-7.83,1.73-9.44l27.42-15.5c3.35-1.89,7-2.13,9.61.51,2.08,2.11,2.62,8.51-.78,10.4l-29.84,16.62Z"/>
</svg>