<?xml version="1.0" encoding="UTF-8"?>
<svg id="_图层_1" data-name="图层_1" xmlns="http://www.w3.org/2000/svg" version="1.1" viewBox="0 0 553 552">
  <!-- Generator: Adobe Illustrator 30.3.0, SVG Export Plug-In . SVG Version: 2.1.3 Build 182)  -->
  <defs>
    <style>
      .st0 {
        fill: #d86e32;
      }

      .st1 {
        fill: #fcecde;
      }

      .st2 {
        fill: #c3ab95;
      }

      .st3 {
        fill: #f0be9d;
      }

      .st4 {
        fill: #fefefe;
      }
    </style>
  </defs>
  <path class="st4" d="M0,552V0h553v552H0ZM448.27,505.55c29.16-14.33,49.63-40.31,58.01-71.15,3.09-11.35,5.47-22.6,5.47-34.74l.08-245.2c0-11.57-4.16-31.03-7.93-42.64-10.67-32.85-36.74-59.06-69.7-69.9-13.16-4.33-25.57-5.44-39.53-6.82l-236.38.25c-15.64.02-30.42,3.03-44.63,8.37-35.11,13.19-60.13,43.08-68.37,79.48-3.28,14.49-4.8,28.3-4.8,43.42l-.03,222.76c0,12.42,1.44,23.67,3.65,35.64,7.35,39.8,35.07,73.23,73.61,86.04,15.58,5.18,31.21,7.45,47.82,7.45l221.66-.05c21.35,0,41.57-3.34,61.05-12.92Z"/>
  <path class="st1" d="M448.27,505.55c-19.49,9.58-39.71,12.91-61.05,12.92l-221.66.05c-16.61,0-32.24-2.27-47.82-7.45-38.54-12.81-66.27-46.24-73.61-86.04-2.21-11.97-3.65-23.22-3.65-35.64l.03-222.76c0-15.12,1.52-28.94,4.8-43.42,8.23-36.39,33.25-66.28,68.37-79.48,14.21-5.34,28.99-8.36,44.63-8.37l236.38-.25c13.96,1.38,26.38,2.5,39.53,6.82,32.96,10.84,59.03,37.05,69.7,69.9,3.77,11.61,7.93,31.07,7.93,42.64l-.08,245.2c0,12.14-2.38,23.39-5.47,34.74-8.38,30.83-28.85,56.81-58.01,71.15ZM349.62,140.24c-4.38.79-6.57,4.76-6.04,7.87.71,4.2,4.12,6.34,8.46,5.8l41.81-5.24c3.52-.44,6.98-4.75,5.15-8.7l-15.82-34.18c-1.93-4.17-4.6-6.72-9.33-5.57-2.8.68-6.33,4.42-4.97,8.06l5.57,14.85c-23.24-13.1-46.62-22.03-72.01-24.9-103.36-11.68-194.75,68.24-196.9,172.23-.54,26.1,6.6,51.49,17.4,75.5,2.26,5.02,6.99,6.96,11.5,4.86,4.78-2.22,5.53-6.89,3.26-11.73-10.01-21.32-16.46-44.26-16.06-67.57,1.7-99.69,92.76-173.75,190.64-155.34,18.57,3.49,35.96,10.6,53.3,21.17l-15.96,2.89ZM285.81,405.12l89.55-49.67c5.7-3.16,8.92-7.76,8.93-14.56v-112.82c0-6.76-3.72-11.11-9.31-14.23l-90.23-50.4c-5.6-3.13-11.39-.82-16.42,2l-89.62,50.11c-4.39,2.45-6.79,7.55-6.79,12.49l-.08,111.85c0,7.63,3.48,12.03,9.88,15.59l85.24,47.48c5.78,3.22,12.09,5.91,18.87,2.15ZM174.97,422.96c16.54,10.6,33.34,19.21,52.16,24.81,63.07,18.74,131.2.36,174.86-48.69,53.68-60.31,61.15-149.93,18.1-218.3-2.88-4.57-7.84-5.43-11.67-2.7-4.38,3.12-4.26,7.76-1.55,12.05,33.64,53.25,33.09,120.8.8,174.39-47.64,79.06-150.09,97.33-225.17,43.58l15.53-.8c4.8-.25,7.49-3.61,7.33-7.78-.17-4.51-3.58-6.58-8.34-6.6l-41.13-.21c-2.3-.01-5.58,1.85-6.27,3.57-.72,1.82-.51,5.09.2,6.94l13.82,36.14c1.74,4.56,4.72,7.17,9.76,5.55,3.53-1.13,5.72-5.21,4.14-9.65l-4.02-11.28-.61-1.7,1.23.06.81.6Z"/>
  <path class="st0" d="M285.81,405.12c-6.77,3.76-13.09,1.06-18.87-2.15l-85.24-47.48c-6.4-3.57-9.89-7.96-9.88-15.59l.08-111.85c0-4.93,2.41-10.03,6.79-12.49l89.62-50.11c5.03-2.81,10.83-5.12,16.42-2l90.23,50.4c5.59,3.12,9.32,7.48,9.32,14.23v112.82c0,6.8-3.23,11.4-8.93,14.56l-89.55,49.67ZM323.99,245.42l39.33-22.05-84.93-47.22-84.83,47.08,84.71,47.65,45.73-25.46ZM271.17,389.02l.07-105.86-85.35-47.88-.02,106.33,85.3,47.42ZM370.35,341.97l-.08-106.1-84.88,47.19-.12,106.24,85.08-47.33Z"/>
  <path class="st2" d="M173.53,423.99l4.02,11.28c1.58,4.44-.61,8.52-4.14,9.65-5.04,1.62-8.02-.99-9.76-5.55l-13.82-36.14c-.71-1.85-.92-5.12-.2-6.94.69-1.72,3.97-3.58,6.27-3.57l41.13.21c4.75.02,8.17,2.1,8.34,6.6.15,4.17-2.53,7.53-7.33,7.78l-15.53.8c75.08,53.75,177.53,35.47,225.17-43.58,32.3-53.59,32.85-121.15-.8-174.39-2.71-4.29-2.83-8.93,1.55-12.05,3.83-2.73,8.79-1.87,11.67,2.7,43.05,68.37,35.58,157.99-18.1,218.3-43.66,49.05-111.79,67.43-174.86,48.69-18.82-5.59-35.62-14.21-52.16-24.81l-1.44,1.04ZM172.92,422.29l1.23.06-1.23-.06Z"/>
  <path class="st0" d="M349.62,140.24l15.96-2.89c-17.34-10.57-34.73-17.67-53.3-21.17-97.88-18.41-188.94,55.65-190.64,155.34-.4,23.31,6.05,46.25,16.06,67.57,2.27,4.84,1.52,9.51-3.26,11.73-4.51,2.09-9.24.15-11.5-4.86-10.8-24.01-17.94-49.39-17.4-75.5,2.15-103.99,93.54-183.91,196.9-172.23,25.39,2.87,48.77,11.8,72.01,24.9l-5.57-14.85c-1.37-3.64,2.17-7.38,4.97-8.06,4.73-1.15,7.4,1.4,9.33,5.57l15.82,34.18c1.83,3.94-1.63,8.26-5.15,8.7l-41.81,5.24c-4.33.54-7.75-1.6-8.46-5.8-.52-3.11,1.67-7.08,6.04-7.87Z"/>
  <polygon class="st1" points="271.17 389.02 185.87 341.6 185.89 235.27 271.24 283.15 271.17 389.02"/>
  <path class="st1" d="M370.35,341.97l-85.08,47.33.12-106.24,84.88-47.19.08,106.1ZM318.79,296.33l29.84-16.62c3.4-1.89,2.86-8.29.78-10.4-2.61-2.64-6.26-2.4-9.61-.51l-27.42,15.5c-2.85,1.61-3.09,7.07-1.73,9.44,1.15,1.99,5.2,4.23,8.14,2.59Z"/>
  <path class="st1" d="M278.38,176.15l-.44,37.91c0,3.34,2.34,6.44,5.42,7.52l38.71,21.37,1.91,2.47-45.73,25.46-84.71-47.65,84.83-47.08Z"/>
  <path class="st3" d="M323.99,245.42l-1.91-2.47-38.71-21.37c-3.08-1.08-5.41-4.17-5.42-7.52l.44-37.91,84.93,47.22-39.33,22.05Z"/>
  <path class="st0" d="M318.79,296.33c-2.94,1.64-7-.6-8.14-2.59-1.37-2.37-1.12-7.83,1.73-9.44l27.42-15.5c3.35-1.89,7-2.13,9.61.51,2.08,2.11,2.62,8.51-.78,10.4l-29.84,16.62Z"/>
</svg>